# Wavefront OBJ file automatically generated by Tiled2Unity

# Vertices (Count = 376)
v -495 -224 0
v -606 -224 0
v -606 -96 0
v -495 -96 0
v -605 -224 0
v -716 -224 0
v -716 -96 0
v -605 -96 0
v -440 -256 0
v -551 -256 0
v -551 -128 0
v -440 -128 0
v -550 -256 0
v -661 -256 0
v -661 -128 0
v -550 -128 0
v -660 -256 0
v -771 -256 0
v -771 -128 0
v -660 -128 0
v -495 -288 0
v -606 -288 0
v -606 -160 0
v -495 -160 0
v -605 -288 0
v -716 -288 0
v -716 -160 0
v -605 -160 0
v -495 -928 0
v -606 -928 0
v -606 -800 0
v -495 -800 0
v -440 -960 0
v -551 -960 0
v -551 -832 0
v -440 -832 0
v -550 -960 0
v -661 -960 0
v -661 -832 0
v -550 -832 0
v -385 -992 0
v -496 -992 0
v -496 -864 0
v -385 -864 0
v -495 -992 0
v -606 -992 0
v -606 -864 0
v -495 -864 0
v -605 -992 0
v -716 -992 0
v -716 -864 0
v -605 -864 0
v -220 -1024 0
v -331 -1024 0
v -331 -896 0
v -220 -896 0
v -330 -1024 0
v -441 -1024 0
v -441 -896 0
v -330 -896 0
v -440 -1024 0
v -551 -1024 0
v -551 -896 0
v -440 -896 0
v -550 -1024 0
v -661 -1024 0
v -661 -896 0
v -550 -896 0
v -660 -1024 0
v -771 -1024 0
v -771 -896 0
v -660 -896 0
v -165 -1056 0
v -276 -1056 0
v -276 -928 0
v -165 -928 0
v -275 -1056 0
v -386 -1056 0
v -386 -928 0
v -275 -928 0
v -385 -1056 0
v -496 -1056 0
v -496 -928 0
v -385 -928 0
v -495 -1056 0
v -606 -1056 0
v -605 -1056 0
v -716 -1056 0
v -716 -928 0
v -605 -928 0
v -715 -1056 0
v -826 -1056 0
v -826 -928 0
v -715 -928 0
v -220 -1088 0
v -331 -1088 0
v -331 -960 0
v -220 -960 0
v -330 -1088 0
v -441 -1088 0
v -441 -960 0
v -330 -960 0
v -440 -1088 0
v -551 -1088 0
v -550 -1088 0
v -661 -1088 0
v -660 -1088 0
v -771 -1088 0
v -771 -960 0
v -660 -960 0
v -165 -1120 0
v -276 -1120 0
v -276 -992 0
v -165 -992 0
v -275 -1120 0
v -386 -1120 0
v -386 -992 0
v -275 -992 0
v -385 -1120 0
v -496 -1120 0
v -495 -1120 0
v -606 -1120 0
v -605 -1120 0
v -716 -1120 0
v -110 -1152 0
v -221 -1152 0
v -221 -1024 0
v -110 -1024 0
v -220 -1152 0
v -331 -1152 0
v -330 -1152 0
v -441 -1152 0
v -440 -1152 0
v -551 -1152 0
v -550 -1152 0
v -661 -1152 0
v -660 -1152 0
v -771 -1152 0
v -55 -1184 0
v -166 -1184 0
v -166 -1056 0
v -55 -1056 0
v -165 -1184 0
v -276 -1184 0
v -275 -1184 0
v -386 -1184 0
v -385 -1184 0
v -496 -1184 0
v -495 -1184 0
v -606 -1184 0
v -605 -1184 0
v -716 -1184 0
v -715 -1184 0
v -826 -1184 0
v -110 -1216 0
v -221 -1216 0
v -221 -1088 0
v -110 -1088 0
v -220 -1216 0
v -331 -1216 0
v -330 -1216 0
v -441 -1216 0
v -440 -1216 0
v -551 -1216 0
v -550 -1216 0
v -661 -1216 0
v -660 -1216 0
v -771 -1216 0
v -770 -1216 0
v -881 -1216 0
v -881 -1088 0
v -770 -1088 0
v -55 -1248 0
v -166 -1248 0
v -166 -1120 0
v -55 -1120 0
v -165 -1248 0
v -276 -1248 0
v -275 -1248 0
v -386 -1248 0
v -385 -1248 0
v -496 -1248 0
v -495 -1248 0
v -606 -1248 0
v -605 -1248 0
v -716 -1248 0
v -715 -1248 0
v -826 -1248 0
v -826 -1120 0
v -715 -1120 0
v 0 -1280 0
v -111 -1280 0
v -111 -1152 0
v 0 -1152 0
v -110 -1280 0
v -221 -1280 0
v -220 -1280 0
v -331 -1280 0
v -330 -1280 0
v -441 -1280 0
v -440 -1280 0
v -551 -1280 0
v -550 -1280 0
v -661 -1280 0
v -660 -1280 0
v -771 -1280 0
v -770 -1280 0
v -881 -1280 0
v -881 -1152 0
v -770 -1152 0
v -55 -1312 0
v -166 -1312 0
v -165 -1312 0
v -276 -1312 0
v -275 -1312 0
v -386 -1312 0
v -385 -1312 0
v -496 -1312 0
v -495 -1312 0
v -606 -1312 0
v -605 -1312 0
v -716 -1312 0
v -715 -1312 0
v -826 -1312 0
v -825 -1312 0
v -936 -1312 0
v -936 -1184 0
v -825 -1184 0
v 0 -1344 0
v -111 -1344 0
v -111 -1216 0
v 0 -1216 0
v -110 -1344 0
v -221 -1344 0
v -220 -1344 0
v -331 -1344 0
v -330 -1344 0
v -441 -1344 0
v -440 -1344 0
v -551 -1344 0
v -550 -1344 0
v -661 -1344 0
v -660 -1344 0
v -771 -1344 0
v -770 -1344 0
v -881 -1344 0
v -55 -1376 0
v -166 -1376 0
v -165 -1376 0
v -276 -1376 0
v -275 -1376 0
v -386 -1376 0
v -385 -1376 0
v -496 -1376 0
v -495 -1376 0
v -606 -1376 0
v -605 -1376 0
v -716 -1376 0
v -715 -1376 0
v -826 -1376 0
v 0 -1408 0
v -111 -1408 0
v -110 -1408 0
v -221 -1408 0
v -220 -1408 0
v -331 -1408 0
v -330 -1408 0
v -441 -1408 0
v -440 -1408 0
v -551 -1408 0
v -550 -1408 0
v -661 -1408 0
v -660 -1408 0
v -771 -1408 0
v -55 -1440 0
v -166 -1440 0
v -165 -1440 0
v -276 -1440 0
v -275 -1440 0
v -386 -1440 0
v -385 -1440 0
v -496 -1440 0
v -495 -1440 0
v -606 -1440 0
v -605 -1440 0
v -716 -1440 0
v -715 -1440 0
v -826 -1440 0
v 0 -1472 0
v -111 -1472 0
v -110 -1472 0
v -221 -1472 0
v -220 -1472 0
v -331 -1472 0
v -330 -1472 0
v -441 -1472 0
v -440 -1472 0
v -551 -1472 0
v -550 -1472 0
v -661 -1472 0
v -660 -1472 0
v -771 -1472 0
v -770 -1472 0
v -881 -1472 0
v -55 -1504 0
v -166 -1504 0
v -165 -1504 0
v -276 -1504 0
v -275 -1504 0
v -386 -1504 0
v -385 -1504 0
v -496 -1504 0
v -495 -1504 0
v -606 -1504 0
v -605 -1504 0
v -716 -1504 0
v -715 -1504 0
v -826 -1504 0
v 0 -1536 0
v -111 -1536 0
v -110 -1536 0
v -221 -1536 0
v -220 -1536 0
v -331 -1536 0
v -330 -1536 0
v -441 -1536 0
v -440 -1536 0
v -551 -1536 0
v -550 -1536 0
v -661 -1536 0
v -660 -1536 0
v -771 -1536 0
v -770 -1536 0
v -881 -1536 0
v -881 -1408 0
v -770 -1408 0
v -55 -1568 0
v -166 -1568 0
v -165 -1568 0
v -276 -1568 0
v -275 -1568 0
v -386 -1568 0
v -385 -1568 0
v -496 -1568 0
v -495 -1568 0
v -606 -1568 0
v -605 -1568 0
v -716 -1568 0
v -715 -1568 0
v -826 -1568 0
v 0 -1600 0
v -111 -1600 0
v -110 -1600 0
v -221 -1600 0
v -220 -1600 0
v -331 -1600 0
v -330 -1600 0
v -441 -1600 0
v -440 -1600 0
v -551 -1600 0
v -550 -1600 0
v -661 -1600 0
v -660 -1600 0
v -771 -1600 0
v -55 -1632 0
v -166 -1632 0
v -165 -1632 0
v -276 -1632 0
v -275 -1632 0
v -386 -1632 0
v -385 -1632 0
v -496 -1632 0
v -495 -1632 0
v -606 -1632 0
v -605 -1632 0
v -716 -1632 0

# Texture cooridinates (Count = 24)
vt 0.2169189 0.8751221
vt 0.3250732 0.8751221
vt 0.3250732 0.9998779
vt 0.2169189 0.9998779
vt 0.5421143 0.2501221
vt 0.6502686 0.2501221
vt 0.6502686 0.3748779
vt 0.5421143 0.3748779
vt 0.6505127 0.1251221
vt 0.758667 0.1251221
vt 0.758667 0.2498779
vt 0.6505127 0.2498779
vt 0.4337158 0.2501221
vt 0.5418701 0.2501221
vt 0.5418701 0.3748779
vt 0.4337158 0.3748779
vt 0.1085205 0.7501221
vt 0.2166748 0.7501221
vt 0.2166748 0.8748779
vt 0.1085205 0.8748779
vt 0.0001220703 0.0001220703
vt 0.9998779 0.0001220703
vt 0.9998779 0.9998779
vt 0.0001220703 0.9998779

# Normal
vn 0 0 -1

# Groups (Count = 2)

g mesh_0001
f 1/1/1 2/2/1 3/3/1 4/4/1
f 5/1/1 6/2/1 7/3/1 8/4/1
f 9/1/1 10/2/1 11/3/1 12/4/1
f 13/1/1 14/2/1 15/3/1 16/4/1
f 17/1/1 18/2/1 19/3/1 20/4/1
f 21/1/1 22/2/1 23/3/1 24/4/1
f 25/1/1 26/2/1 27/3/1 28/4/1
f 29/5/1 30/6/1 31/7/1 32/8/1
f 33/5/1 34/6/1 35/7/1 36/8/1
f 37/5/1 38/6/1 39/7/1 40/8/1
f 41/5/1 42/6/1 43/7/1 44/8/1
f 45/5/1 46/6/1 47/7/1 48/8/1
f 49/5/1 50/6/1 51/7/1 52/8/1
f 53/5/1 54/6/1 55/7/1 56/8/1
f 57/5/1 58/6/1 59/7/1 60/8/1
f 61/5/1 62/6/1 63/7/1 64/8/1
f 65/5/1 66/6/1 67/7/1 68/8/1
f 69/5/1 70/6/1 71/7/1 72/8/1
f 73/5/1 74/6/1 75/7/1 76/8/1
f 77/5/1 78/6/1 79/7/1 80/8/1
f 81/5/1 82/6/1 83/7/1 84/8/1
f 85/5/1 86/6/1 30/7/1 29/8/1
f 87/5/1 88/6/1 89/7/1 90/8/1
f 91/9/1 92/10/1 93/11/1 94/12/1
f 95/5/1 96/6/1 97/7/1 98/8/1
f 99/5/1 100/6/1 101/7/1 102/8/1
f 103/5/1 104/6/1 34/7/1 33/8/1
f 105/5/1 106/6/1 38/7/1 37/8/1
f 107/9/1 108/10/1 109/11/1 110/12/1
f 111/5/1 112/6/1 113/7/1 114/8/1
f 115/5/1 116/6/1 117/7/1 118/8/1
f 119/5/1 120/6/1 42/7/1 41/8/1
f 121/13/1 122/14/1 46/15/1 45/16/1
f 123/9/1 124/10/1 50/11/1 49/12/1
f 125/5/1 126/6/1 127/7/1 128/8/1
f 129/5/1 130/6/1 54/7/1 53/8/1
f 131/5/1 132/6/1 58/7/1 57/8/1
f 133/13/1 134/14/1 62/15/1 61/16/1
f 135/13/1 136/14/1 66/15/1 65/16/1
f 137/9/1 138/10/1 70/11/1 69/12/1
f 139/13/1 140/14/1 141/15/1 142/16/1
f 143/5/1 144/6/1 74/7/1 73/8/1
f 145/5/1 146/6/1 78/7/1 77/8/1
f 147/5/1 148/6/1 82/7/1 81/8/1
f 149/13/1 150/14/1 86/15/1 85/16/1
f 151/9/1 152/10/1 88/11/1 87/12/1
f 153/9/1 154/10/1 92/11/1 91/12/1
f 155/13/1 156/14/1 157/15/1 158/16/1
f 159/13/1 160/14/1 96/15/1 95/16/1
f 161/5/1 162/6/1 100/7/1 99/8/1
f 163/13/1 164/14/1 104/15/1 103/16/1
f 165/13/1 166/14/1 106/15/1 105/16/1
f 167/9/1 168/10/1 108/11/1 107/12/1
f 169/9/1 170/10/1 171/11/1 172/12/1
f 173/13/1 174/14/1 175/15/1 176/16/1
f 177/13/1 178/14/1 112/15/1 111/16/1
f 179/13/1 180/14/1 116/15/1 115/16/1
f 181/13/1 182/14/1 120/15/1 119/16/1
f 183/13/1 184/14/1 122/15/1 121/16/1
f 185/9/1 186/10/1 124/11/1 123/12/1
f 187/9/1 188/10/1 189/11/1 190/12/1
f 191/13/1 192/14/1 193/15/1 194/16/1
f 195/13/1 196/14/1 126/15/1 125/16/1
f 197/13/1 198/14/1 130/15/1 129/16/1
f 199/13/1 200/14/1 132/15/1 131/16/1
f 201/13/1 202/14/1 134/15/1 133/16/1
f 203/13/1 204/14/1 136/15/1 135/16/1
f 205/9/1 206/10/1 138/11/1 137/12/1
f 207/9/1 208/10/1 209/11/1 210/12/1
f 211/13/1 212/14/1 140/15/1 139/16/1
f 213/13/1 214/14/1 144/15/1 143/16/1
f 215/13/1 216/14/1 146/15/1 145/16/1
f 217/13/1 218/14/1 148/15/1 147/16/1
f 219/13/1 220/14/1 150/15/1 149/16/1
f 221/13/1 222/14/1 152/15/1 151/16/1
f 223/9/1 224/10/1 154/11/1 153/12/1
f 225/9/1 226/10/1 227/11/1 228/12/1
f 229/13/1 230/14/1 231/15/1 232/16/1
f 233/13/1 234/14/1 156/15/1 155/16/1
f 235/13/1 236/14/1 160/15/1 159/16/1
f 237/13/1 238/14/1 162/15/1 161/16/1
f 239/13/1 240/14/1 164/15/1 163/16/1
f 241/13/1 242/14/1 166/15/1 165/16/1
f 243/13/1 244/14/1 168/15/1 167/16/1
f 245/9/1 246/10/1 170/11/1 169/12/1
f 247/13/1 248/14/1 174/15/1 173/16/1
f 249/13/1 250/14/1 178/15/1 177/16/1
f 251/13/1 252/14/1 180/15/1 179/16/1
f 253/13/1 254/14/1 182/15/1 181/16/1
f 255/13/1 256/14/1 184/15/1 183/16/1
f 257/13/1 258/14/1 186/15/1 185/16/1
f 259/13/1 260/14/1 188/15/1 187/16/1
f 261/13/1 262/14/1 192/15/1 191/16/1
f 263/13/1 264/14/1 196/15/1 195/16/1
f 265/13/1 266/14/1 198/15/1 197/16/1
f 267/13/1 268/14/1 200/15/1 199/16/1
f 269/17/1 270/18/1 202/19/1 201/20/1
f 271/13/1 272/14/1 204/15/1 203/16/1
f 273/13/1 274/14/1 206/15/1 205/16/1
f 275/13/1 276/14/1 212/15/1 211/16/1
f 277/13/1 278/14/1 214/15/1 213/16/1
f 279/1/1 280/2/1 216/3/1 215/4/1
f 281/13/1 282/14/1 218/15/1 217/16/1
f 283/17/1 284/18/1 220/19/1 219/20/1
f 285/13/1 286/14/1 222/15/1 221/16/1
f 287/13/1 288/14/1 224/15/1 223/16/1
f 289/13/1 290/14/1 230/15/1 229/16/1
f 291/13/1 292/14/1 234/15/1 233/16/1
f 293/1/1 294/2/1 236/3/1 235/4/1
f 295/1/1 296/2/1 238/3/1 237/4/1
f 297/17/1 298/18/1 240/19/1 239/20/1
f 299/13/1 300/14/1 242/15/1 241/16/1
f 301/13/1 302/14/1 244/15/1 243/16/1
f 303/13/1 304/14/1 246/15/1 245/16/1
f 305/13/1 306/14/1 248/15/1 247/16/1
f 307/1/1 308/2/1 250/3/1 249/4/1
f 309/1/1 310/2/1 252/3/1 251/4/1
f 311/1/1 312/2/1 254/3/1 253/4/1
f 313/1/1 314/2/1 256/3/1 255/4/1
f 315/13/1 316/14/1 258/15/1 257/16/1
f 317/13/1 318/14/1 260/15/1 259/16/1
f 319/13/1 320/14/1 262/15/1 261/16/1
f 321/1/1 322/2/1 264/3/1 263/4/1
f 323/1/1 324/2/1 266/3/1 265/4/1
f 325/1/1 326/2/1 268/3/1 267/4/1
f 327/1/1 328/2/1 270/3/1 269/4/1
f 329/13/1 330/14/1 272/15/1 271/16/1
f 331/13/1 332/14/1 274/15/1 273/16/1
f 333/13/1 334/14/1 335/15/1 336/16/1
f 337/1/1 338/2/1 276/3/1 275/4/1
f 339/1/1 340/2/1 278/3/1 277/4/1
f 341/1/1 342/2/1 280/3/1 279/4/1
f 343/1/1 344/2/1 282/3/1 281/4/1
f 345/13/1 346/14/1 284/15/1 283/16/1
f 347/13/1 348/14/1 286/15/1 285/16/1
f 349/13/1 350/14/1 288/15/1 287/16/1
f 351/1/1 352/2/1 290/3/1 289/4/1
f 353/1/1 354/2/1 292/3/1 291/4/1
f 355/1/1 356/2/1 294/3/1 293/4/1
f 357/1/1 358/2/1 296/3/1 295/4/1
f 359/13/1 360/14/1 298/15/1 297/16/1
f 361/13/1 362/14/1 300/15/1 299/16/1
f 363/13/1 364/14/1 302/15/1 301/16/1
f 365/1/1 366/2/1 306/3/1 305/4/1
f 367/1/1 368/2/1 308/3/1 307/4/1
f 369/1/1 370/2/1 310/3/1 309/4/1
f 371/1/1 372/2/1 312/3/1 311/4/1
f 373/13/1 374/14/1 314/15/1 313/16/1
f 375/13/1 376/14/1 316/15/1 315/16/1

g mesh_0002
f 121/21/1 122/22/1 86/23/1 85/24/1
f 149/21/1 150/22/1 122/23/1 121/24/1

